<?xml version="1.0" encoding="UTF-8" standalone="no"?>
<!DOCTYPE svg PUBLIC "-//W3C//DTD SVG 1.1//EN"
 "http://www.w3.org/Graphics/SVG/1.1/DTD/svg11.dtd">
<!-- Generated by graphviz version 2.38.0 (20140413.2041)
 -->
<!-- Title: snakemake_dag Pages: 1 -->
<svg width="781pt" height="260pt"
 viewBox="0.00 0.00 781.25 260.00" xmlns="http://www.w3.org/2000/svg" xmlns:xlink="http://www.w3.org/1999/xlink">
<g id="graph0" class="graph" transform="scale(1 1) rotate(0) translate(4 256)">
<title>snakemake_dag</title>
<polygon fill="white" stroke="none" points="-4,4 -4,-256 777.246,-256 777.246,4 -4,4"/>
<!-- 0 -->
<g id="node1" class="node"><title>0</title>
<path fill="none" stroke="#59d856" stroke-width="2" d="M392.746,-36C392.746,-36 362.746,-36 362.746,-36 356.746,-36 350.746,-30 350.746,-24 350.746,-24 350.746,-12 350.746,-12 350.746,-6 356.746,-0 362.746,-0 362.746,-0 392.746,-0 392.746,-0 398.746,-0 404.746,-6 404.746,-12 404.746,-12 404.746,-24 404.746,-24 404.746,-30 398.746,-36 392.746,-36"/>
<text text-anchor="middle" x="377.746" y="-15.5" font-family="sans" font-size="10.00">all</text>
</g>
<!-- 1 -->
<g id="node2" class="node"><title>1</title>
<path fill="none" stroke="#56a9d8" stroke-width="2" d="M316.246,-252C316.246,-252 233.246,-252 233.246,-252 227.246,-252 221.246,-246 221.246,-240 221.246,-240 221.246,-228 221.246,-228 221.246,-222 227.246,-216 233.246,-216 233.246,-216 316.246,-216 316.246,-216 322.246,-216 328.246,-222 328.246,-228 328.246,-228 328.246,-240 328.246,-240 328.246,-246 322.246,-252 316.246,-252"/>
<text text-anchor="middle" x="274.746" y="-231.5" font-family="sans" font-size="10.00">hisat2_build</text>
</g>
<!-- 1&#45;&gt;0 -->
<g id="edge1" class="edge"><title>1&#45;&gt;0</title>
<path fill="none" stroke="grey" stroke-width="2" d="M220.885,-222.136C126.727,-200.847 -51.7508,-148.911 14.7463,-72 56.5901,-23.603 256.329,-18.5266 340.361,-18.5831"/>
<polygon fill="grey" stroke="grey" stroke-width="2" points="340.475,-22.0833 350.486,-18.6155 340.498,-15.0834 340.475,-22.0833"/>
</g>
<!-- 2 -->
<g id="node3" class="node"><title>2</title>
<path fill="none" stroke="#d8ac56" stroke-width="2" d="M229.246,-180C229.246,-180 116.246,-180 116.246,-180 110.246,-180 104.246,-174 104.246,-168 104.246,-168 104.246,-156 104.246,-156 104.246,-150 110.246,-144 116.246,-144 116.246,-144 229.246,-144 229.246,-144 235.246,-144 241.246,-150 241.246,-156 241.246,-156 241.246,-168 241.246,-168 241.246,-174 235.246,-180 229.246,-180"/>
<text text-anchor="middle" x="172.746" y="-165" font-family="sans" font-size="10.00">hisat2</text>
<text text-anchor="middle" x="172.746" y="-154" font-family="sans" font-size="10.00">sample: Sample16</text>
</g>
<!-- 1&#45;&gt;2 -->
<g id="edge12" class="edge"><title>1&#45;&gt;2</title>
<path fill="none" stroke="grey" stroke-width="2" d="M249.794,-215.876C236.705,-206.893 220.486,-195.763 206.31,-186.034"/>
<polygon fill="grey" stroke="grey" stroke-width="2" points="208.02,-182.962 197.794,-180.19 204.059,-188.734 208.02,-182.962"/>
</g>
<!-- 3 -->
<g id="node4" class="node"><title>3</title>
<path fill="none" stroke="#d8ac56" stroke-width="2" d="M434.246,-180C434.246,-180 321.246,-180 321.246,-180 315.246,-180 309.246,-174 309.246,-168 309.246,-168 309.246,-156 309.246,-156 309.246,-150 315.246,-144 321.246,-144 321.246,-144 434.246,-144 434.246,-144 440.246,-144 446.246,-150 446.246,-156 446.246,-156 446.246,-168 446.246,-168 446.246,-174 440.246,-180 434.246,-180"/>
<text text-anchor="middle" x="377.746" y="-165" font-family="sans" font-size="10.00">hisat2</text>
<text text-anchor="middle" x="377.746" y="-154" font-family="sans" font-size="10.00">sample: Sample17</text>
</g>
<!-- 1&#45;&gt;3 -->
<g id="edge13" class="edge"><title>1&#45;&gt;3</title>
<path fill="none" stroke="grey" stroke-width="2" d="M299.943,-215.876C313.161,-206.893 329.539,-195.763 343.853,-186.034"/>
<polygon fill="grey" stroke="grey" stroke-width="2" points="346.149,-188.705 352.453,-180.19 342.215,-182.916 346.149,-188.705"/>
</g>
<!-- 4 -->
<g id="node5" class="node"><title>4</title>
<path fill="none" stroke="#d8ac56" stroke-width="2" d="M630.246,-180C630.246,-180 517.246,-180 517.246,-180 511.246,-180 505.246,-174 505.246,-168 505.246,-168 505.246,-156 505.246,-156 505.246,-150 511.246,-144 517.246,-144 517.246,-144 630.246,-144 630.246,-144 636.246,-144 642.246,-150 642.246,-156 642.246,-156 642.246,-168 642.246,-168 642.246,-174 636.246,-180 630.246,-180"/>
<text text-anchor="middle" x="573.746" y="-165" font-family="sans" font-size="10.00">hisat2</text>
<text text-anchor="middle" x="573.746" y="-154" font-family="sans" font-size="10.00">sample: Sample18</text>
</g>
<!-- 1&#45;&gt;4 -->
<g id="edge14" class="edge"><title>1&#45;&gt;4</title>
<path fill="none" stroke="grey" stroke-width="2" d="M328.547,-220.405C374.985,-209.533 442.676,-193.685 495.176,-181.394"/>
<polygon fill="grey" stroke="grey" stroke-width="2" points="496.189,-184.752 505.128,-179.065 494.593,-177.936 496.189,-184.752"/>
</g>
<!-- 2&#45;&gt;0 -->
<g id="edge2" class="edge"><title>2&#45;&gt;0</title>
<path fill="none" stroke="grey" stroke-width="2" d="M104.203,-145.441C53.3753,-130.756 -2.43965,-105.924 26.7463,-72 66.9362,-25.2859 258.534,-19.2133 340.457,-18.7924"/>
<polygon fill="grey" stroke="grey" stroke-width="2" points="340.585,-22.2922 350.576,-18.7667 340.567,-15.2922 340.585,-22.2922"/>
</g>
<!-- 5 -->
<g id="node6" class="node"><title>5</title>
<path fill="none" stroke="#afd856" stroke-width="2" d="M107.746,-108C107.746,-108 47.7463,-108 47.7463,-108 41.7463,-108 35.7463,-102 35.7463,-96 35.7463,-96 35.7463,-84 35.7463,-84 35.7463,-78 41.7463,-72 47.7463,-72 47.7463,-72 107.746,-72 107.746,-72 113.746,-72 119.746,-78 119.746,-84 119.746,-84 119.746,-96 119.746,-96 119.746,-102 113.746,-108 107.746,-108"/>
<text text-anchor="middle" x="77.7463" y="-87.5" font-family="sans" font-size="10.00">stringtie</text>
</g>
<!-- 2&#45;&gt;5 -->
<g id="edge15" class="edge"><title>2&#45;&gt;5</title>
<path fill="none" stroke="grey" stroke-width="2" d="M149.263,-143.697C137.184,-134.796 122.292,-123.823 109.23,-114.199"/>
<polygon fill="grey" stroke="grey" stroke-width="2" points="111.086,-111.219 100.959,-108.104 106.934,-116.854 111.086,-111.219"/>
</g>
<!-- 8 -->
<g id="node9" class="node"><title>8</title>
<path fill="none" stroke="#56d8a9" stroke-width="2" d="M195.246,-108C195.246,-108 150.246,-108 150.246,-108 144.246,-108 138.246,-102 138.246,-96 138.246,-96 138.246,-84 138.246,-84 138.246,-78 144.246,-72 150.246,-72 150.246,-72 195.246,-72 195.246,-72 201.246,-72 207.246,-78 207.246,-84 207.246,-84 207.246,-96 207.246,-96 207.246,-102 201.246,-108 195.246,-108"/>
<text text-anchor="middle" x="172.746" y="-87.5" font-family="sans" font-size="10.00">scallop</text>
</g>
<!-- 2&#45;&gt;8 -->
<g id="edge18" class="edge"><title>2&#45;&gt;8</title>
<path fill="none" stroke="grey" stroke-width="2" d="M172.746,-143.697C172.746,-135.983 172.746,-126.712 172.746,-118.112"/>
<polygon fill="grey" stroke="grey" stroke-width="2" points="176.246,-118.104 172.746,-108.104 169.246,-118.104 176.246,-118.104"/>
</g>
<!-- 11 -->
<g id="node12" class="node"><title>11</title>
<path fill="none" stroke="#d85656" stroke-width="2" d="M305.746,-108C305.746,-108 237.746,-108 237.746,-108 231.746,-108 225.746,-102 225.746,-96 225.746,-96 225.746,-84 225.746,-84 225.746,-78 231.746,-72 237.746,-72 237.746,-72 305.746,-72 305.746,-72 311.746,-72 317.746,-78 317.746,-84 317.746,-84 317.746,-96 317.746,-96 317.746,-102 311.746,-108 305.746,-108"/>
<text text-anchor="middle" x="271.746" y="-87.5" font-family="sans" font-size="10.00">portcullis</text>
</g>
<!-- 2&#45;&gt;11 -->
<g id="edge21" class="edge"><title>2&#45;&gt;11</title>
<path fill="none" stroke="grey" stroke-width="2" d="M196.964,-143.876C209.669,-134.893 225.411,-123.763 239.169,-114.034"/>
<polygon fill="grey" stroke="grey" stroke-width="2" points="241.291,-116.821 247.435,-108.19 237.249,-111.105 241.291,-116.821"/>
</g>
<!-- 3&#45;&gt;0 -->
<g id="edge3" class="edge"><title>3&#45;&gt;0</title>
<path fill="none" stroke="grey" stroke-width="2" d="M446.325,-151.449C472.534,-144.086 499.903,-131.056 515.746,-108 524.808,-94.8132 524.808,-85.1868 515.746,-72 493.253,-39.2668 447.526,-26.7408 414.875,-21.9528"/>
<polygon fill="grey" stroke="grey" stroke-width="2" points="415.144,-18.4587 404.779,-20.6544 414.251,-25.4015 415.144,-18.4587"/>
</g>
<!-- 6 -->
<g id="node7" class="node"><title>6</title>
<path fill="none" stroke="#afd856" stroke-width="2" d="M407.746,-108C407.746,-108 347.746,-108 347.746,-108 341.746,-108 335.746,-102 335.746,-96 335.746,-96 335.746,-84 335.746,-84 335.746,-78 341.746,-72 347.746,-72 347.746,-72 407.746,-72 407.746,-72 413.746,-72 419.746,-78 419.746,-84 419.746,-84 419.746,-96 419.746,-96 419.746,-102 413.746,-108 407.746,-108"/>
<text text-anchor="middle" x="377.746" y="-87.5" font-family="sans" font-size="10.00">stringtie</text>
</g>
<!-- 3&#45;&gt;6 -->
<g id="edge16" class="edge"><title>3&#45;&gt;6</title>
<path fill="none" stroke="grey" stroke-width="2" d="M377.746,-143.697C377.746,-135.983 377.746,-126.712 377.746,-118.112"/>
<polygon fill="grey" stroke="grey" stroke-width="2" points="381.246,-118.104 377.746,-108.104 374.246,-118.104 381.246,-118.104"/>
</g>
<!-- 9 -->
<g id="node10" class="node"><title>9</title>
<path fill="none" stroke="#56d8a9" stroke-width="2" d="M495.246,-108C495.246,-108 450.246,-108 450.246,-108 444.246,-108 438.246,-102 438.246,-96 438.246,-96 438.246,-84 438.246,-84 438.246,-78 444.246,-72 450.246,-72 450.246,-72 495.246,-72 495.246,-72 501.246,-72 507.246,-78 507.246,-84 507.246,-84 507.246,-96 507.246,-96 507.246,-102 501.246,-108 495.246,-108"/>
<text text-anchor="middle" x="472.746" y="-87.5" font-family="sans" font-size="10.00">scallop</text>
</g>
<!-- 3&#45;&gt;9 -->
<g id="edge19" class="edge"><title>3&#45;&gt;9</title>
<path fill="none" stroke="grey" stroke-width="2" d="M401.229,-143.697C413.309,-134.796 428.2,-123.823 441.262,-114.199"/>
<polygon fill="grey" stroke="grey" stroke-width="2" points="443.559,-116.854 449.533,-108.104 439.406,-111.219 443.559,-116.854"/>
</g>
<!-- 3&#45;&gt;11 -->
<g id="edge22" class="edge"><title>3&#45;&gt;11</title>
<path fill="none" stroke="grey" stroke-width="2" d="M351.816,-143.876C338.085,-134.808 321.04,-123.552 306.21,-113.759"/>
<polygon fill="grey" stroke="grey" stroke-width="2" points="308.05,-110.78 297.776,-108.19 304.192,-116.621 308.05,-110.78"/>
</g>
<!-- 4&#45;&gt;0 -->
<g id="edge4" class="edge"><title>4&#45;&gt;0</title>
<path fill="none" stroke="grey" stroke-width="2" d="M570.366,-143.823C565.575,-123.878 554.927,-91.261 533.746,-72 500.568,-41.829 449.518,-28.7346 414.93,-23.1165"/>
<polygon fill="grey" stroke="grey" stroke-width="2" points="415.169,-19.6136 404.763,-21.6023 414.138,-26.5372 415.169,-19.6136"/>
</g>
<!-- 7 -->
<g id="node8" class="node"><title>7</title>
<path fill="none" stroke="#afd856" stroke-width="2" d="M673.746,-108C673.746,-108 613.746,-108 613.746,-108 607.746,-108 601.746,-102 601.746,-96 601.746,-96 601.746,-84 601.746,-84 601.746,-78 607.746,-72 613.746,-72 613.746,-72 673.746,-72 673.746,-72 679.746,-72 685.746,-78 685.746,-84 685.746,-84 685.746,-96 685.746,-96 685.746,-102 679.746,-108 673.746,-108"/>
<text text-anchor="middle" x="643.746" y="-87.5" font-family="sans" font-size="10.00">stringtie</text>
</g>
<!-- 4&#45;&gt;7 -->
<g id="edge17" class="edge"><title>4&#45;&gt;7</title>
<path fill="none" stroke="grey" stroke-width="2" d="M591.05,-143.697C599.611,-135.135 610.09,-124.656 619.442,-115.304"/>
<polygon fill="grey" stroke="grey" stroke-width="2" points="622.046,-117.65 626.642,-108.104 617.096,-112.701 622.046,-117.65"/>
</g>
<!-- 10 -->
<g id="node11" class="node"><title>10</title>
<path fill="none" stroke="#56d8a9" stroke-width="2" d="M761.246,-108C761.246,-108 716.246,-108 716.246,-108 710.246,-108 704.246,-102 704.246,-96 704.246,-96 704.246,-84 704.246,-84 704.246,-78 710.246,-72 716.246,-72 716.246,-72 761.246,-72 761.246,-72 767.246,-72 773.246,-78 773.246,-84 773.246,-84 773.246,-96 773.246,-96 773.246,-102 767.246,-108 761.246,-108"/>
<text text-anchor="middle" x="738.746" y="-87.5" font-family="sans" font-size="10.00">scallop</text>
</g>
<!-- 4&#45;&gt;10 -->
<g id="edge20" class="edge"><title>4&#45;&gt;10</title>
<path fill="none" stroke="grey" stroke-width="2" d="M614.11,-143.876C638.559,-133.504 669.757,-120.268 694.823,-109.634"/>
<polygon fill="grey" stroke="grey" stroke-width="2" points="696.264,-112.825 704.103,-105.697 693.53,-106.381 696.264,-112.825"/>
</g>
<!-- 4&#45;&gt;11 -->
<g id="edge23" class="edge"><title>4&#45;&gt;11</title>
<path fill="none" stroke="grey" stroke-width="2" d="M505.217,-147.987C457.862,-138.605 393.256,-125.037 327.938,-108.201"/>
<polygon fill="grey" stroke="grey" stroke-width="2" points="328.434,-104.713 317.875,-105.582 326.671,-111.488 328.434,-104.713"/>
</g>
<!-- 5&#45;&gt;0 -->
<g id="edge5" class="edge"><title>5&#45;&gt;0</title>
<path fill="none" stroke="grey" stroke-width="2" d="M119.936,-74.532C122.906,-73.6382 125.864,-72.7843 128.746,-72 203.043,-51.7784 291.535,-34.5341 340.493,-25.5799"/>
<polygon fill="grey" stroke="grey" stroke-width="2" points="341.396,-28.9734 350.611,-23.7448 340.146,-22.0858 341.396,-28.9734"/>
</g>
<!-- 6&#45;&gt;0 -->
<g id="edge6" class="edge"><title>6&#45;&gt;0</title>
<path fill="none" stroke="grey" stroke-width="2" d="M377.746,-71.6966C377.746,-63.9827 377.746,-54.7125 377.746,-46.1124"/>
<polygon fill="grey" stroke="grey" stroke-width="2" points="381.246,-46.1043 377.746,-36.1043 374.246,-46.1044 381.246,-46.1043"/>
</g>
<!-- 7&#45;&gt;0 -->
<g id="edge7" class="edge"><title>7&#45;&gt;0</title>
<path fill="none" stroke="grey" stroke-width="2" d="M601.612,-75.9749C596.942,-74.6014 592.249,-73.251 587.746,-72 527.501,-55.2633 456.915,-37.9072 414.843,-27.7981"/>
<polygon fill="grey" stroke="grey" stroke-width="2" points="415.579,-24.3756 405.039,-25.4498 413.949,-31.1831 415.579,-24.3756"/>
</g>
<!-- 8&#45;&gt;0 -->
<g id="edge8" class="edge"><title>8&#45;&gt;0</title>
<path fill="none" stroke="grey" stroke-width="2" d="M207.272,-75.4706C210.467,-74.276 213.662,-73.1028 216.746,-72 259.059,-56.8723 308.178,-40.934 340.928,-30.5347"/>
<polygon fill="grey" stroke="grey" stroke-width="2" points="342.063,-33.8467 350.541,-27.4922 339.951,-27.173 342.063,-33.8467"/>
</g>
<!-- 9&#45;&gt;0 -->
<g id="edge9" class="edge"><title>9&#45;&gt;0</title>
<path fill="none" stroke="grey" stroke-width="2" d="M449.263,-71.6966C437.184,-62.796 422.292,-51.8232 409.23,-42.1989"/>
<polygon fill="grey" stroke="grey" stroke-width="2" points="411.086,-39.2187 400.959,-36.1043 406.934,-44.8541 411.086,-39.2187"/>
</g>
<!-- 10&#45;&gt;0 -->
<g id="edge10" class="edge"><title>10&#45;&gt;0</title>
<path fill="none" stroke="grey" stroke-width="2" d="M703.897,-74.7998C700.828,-73.7738 697.748,-72.8216 694.746,-72 595.49,-44.8313 474.722,-29.3012 414.952,-22.7409"/>
<polygon fill="grey" stroke="grey" stroke-width="2" points="415.18,-19.2454 404.863,-21.6557 414.431,-26.2052 415.18,-19.2454"/>
</g>
<!-- 11&#45;&gt;0 -->
<g id="edge11" class="edge"><title>11&#45;&gt;0</title>
<path fill="none" stroke="grey" stroke-width="2" d="M297.677,-71.8761C311.408,-62.8083 328.453,-51.5523 343.282,-41.7592"/>
<polygon fill="grey" stroke="grey" stroke-width="2" points="345.3,-44.621 351.716,-36.1898 341.443,-38.7798 345.3,-44.621"/>
</g>
</g>
</svg>
